<!--
Author: Cascade using Claude 4 Sonnet Thinking
Date: 2025-09-14T23:02:19-04:00
Purpose: Detailed 32x32 favicon with enhanced visual complexity for abstract reasoning themes
-->
<svg xmlns="http://www.w3.org/2000/svg" viewBox="0 0 32 32" width="32" height="32">
  <defs>
    <linearGradient id="brainGrad32" x1="0%" y1="0%" x2="100%" y2="100%">
      <stop offset="0%" style="stop-color:#667eea"/>
      <stop offset="30%" style="stop-color:#7c3aed"/>
      <stop offset="70%" style="stop-color:#764ba2"/>
      <stop offset="100%" style="stop-color:#4c1d95"/>
    </linearGradient>
    <linearGradient id="neuralGlow" x1="0%" y1="0%" x2="100%" y2="100%">
      <stop offset="0%" style="stop-color:#60a5fa;stop-opacity:0.8"/>
      <stop offset="100%" style="stop-color:#a78bfa;stop-opacity:0.4"/>
    </linearGradient>
  </defs>

  <!-- Neural network background pattern -->
  <circle cx="8" cy="10" r="1" fill="#4c1d95" opacity="0.3"/>
  <circle cx="24" cy="8" r="1" fill="#4c1d95" opacity="0.3"/>
  <circle cx="6" cy="20" r="1" fill="#4c1d95" opacity="0.3"/>
  <circle cx="26" cy="18" r="1" fill="#4c1d95" opacity="0.3"/>
  
  <!-- Connection lines -->
  <path d="M8 10L16 8M24 8L16 12M6 20L16 16M26 18L16 16" stroke="#667eea" stroke-width="0.3" opacity="0.4"/>

  <!-- Main brain outline with enhanced detail -->
  <path d="M16 4C11.5 4 8.5 7.2 8.5 11.2c0 1.1 0.2 2.1 0.7 3C8.2 14.8 7.5 16.1 7.5 17.5c0 2.5 2 4.5 4.5 4.5h8c2.5 0 4.5-2 4.5-4.5 0-1.4-0.7-2.7-1.7-3.3 0.5-0.9 0.7-1.9 0.7-3C23.5 7.2 20.5 4 16 4z"
        fill="url(#brainGrad32)"
        stroke="#2d1b69"
        stroke-width="1.2"/>

  <!-- Inner brain texture -->
  <path d="M16 5.5v16.5" stroke="#2d1b69" stroke-width="1" opacity="0.7"/>
  <path d="M11.5 8.5c2.5 0 4.5 1.2 4.5 3.5" stroke="#2d1b69" stroke-width="0.8" opacity="0.6" fill="none"/>
  <path d="M20.5 11.5c-2.5 0-4.5 1.2-4.5 3.5" stroke="#2d1b69" stroke-width="0.8" opacity="0.6" fill="none"/>
  
  <!-- Additional neural pathways -->
  <path d="M13 7c1.5 1 3 2.5 3 4.5" stroke="#60a5fa" stroke-width="0.5" opacity="0.5" fill="none"/>
  <path d="M19 10c-1.5 1-3 2.5-3 4.5" stroke="#60a5fa" stroke-width="0.5" opacity="0.5" fill="none"/>

  <!-- Enhanced assessment dots with glow -->
  <circle cx="12.5" cy="26" r="1.8" fill="url(#neuralGlow)"/>
  <circle cx="16" cy="26" r="1.8" fill="url(#neuralGlow)"/>
  <circle cx="19.5" cy="26" r="1.8" fill="url(#neuralGlow)"/>
  
  <!-- Inner dots -->
  <circle cx="12.5" cy="26" r="1.2" fill="#667eea"/>
  <circle cx="16" cy="26" r="1.2" fill="#7c3aed"/>
  <circle cx="19.5" cy="26" r="1.2" fill="#764ba2"/>

  <!-- Abstract reasoning pattern -->
  <rect x="10" y="28.5" width="2" height="2" fill="#667eea" opacity="0.6" rx="0.3"/>
  <rect x="15" y="28.5" width="2" height="2" fill="#7c3aed" opacity="0.6" rx="0.3"/>
  <rect x="20" y="28.5" width="2" height="2" fill="#764ba2" opacity="0.6" rx="0.3"/>
</svg>
